<svg width="170" height="46" viewBox="0 0 170 46" fill="none" xmlns="http://www.w3.org/2000/svg">
<path d="M144.177 13.3572C151.308 13.3572 157.089 7.60085 157.089 0.5C157.089 7.60085 162.869 13.3572 170 13.3572C162.869 13.3572 157.089 19.1136 157.089 26.2145C157.089 19.1136 151.308 13.3572 144.177 13.3572Z" fill="black"/>
<path fill-rule="evenodd" clip-rule="evenodd" d="M24.5492 45.1571V13.3569H18.0139V24.5427C16.394 22.6856 14.1458 21.757 11.2692 21.757C9.1466 21.757 7.21953 22.2427 5.48796 23.2141C3.78431 24.1856 2.44374 25.5713 1.46625 27.3713C0.488747 29.1713 0 31.257 0 33.6285C0 35.9999 0.488747 38.0857 1.46625 39.8857C2.44374 41.6857 3.78431 43.0714 5.48796 44.0428C7.21953 45.0143 9.1466 45.5 11.2692 45.5C14.3413 45.5 16.6873 44.5 18.3072 42.5V45.1571H24.5492ZM16.5058 38.2999C15.4166 39.4428 14.0481 40.0142 12.4003 40.0142C10.7246 40.0142 9.3421 39.4428 8.25288 38.2999C7.16367 37.1285 6.61907 35.5714 6.61907 33.6285C6.61907 31.6856 7.16367 30.1427 8.25288 28.9999C9.3421 27.8284 10.7246 27.2427 12.4003 27.2427C14.0481 27.2427 15.4166 27.8284 16.5058 28.9999C17.595 30.1427 18.1396 31.6856 18.1396 33.6285C18.1396 35.5714 17.595 37.1285 16.5058 38.2999Z" fill="black"/>
<path fill-rule="evenodd" clip-rule="evenodd" d="M34.9128 44C36.8119 45 38.9484 45.5 41.3223 45.5C43.6963 45.5 45.8188 45 47.69 44C49.5613 42.9714 51.0275 41.5571 52.0888 39.7571C53.1501 37.9571 53.6807 35.9142 53.6807 33.6285C53.6807 31.3428 53.1501 29.2999 52.0888 27.4999C51.0275 25.6999 49.5613 24.2999 47.69 23.2998C45.8188 22.2713 43.6963 21.757 41.3223 21.757C38.9484 21.757 36.8119 22.2713 34.9128 23.2998C33.0415 24.2999 31.5753 25.6999 30.514 27.4999C29.4527 29.2999 28.9221 31.3428 28.9221 33.6285C28.9221 35.9142 29.4527 37.9571 30.514 39.7571C31.5753 41.5571 33.0415 42.9714 34.9128 44ZM45.4278 38.2999C44.3666 39.4428 42.9981 40.0142 41.3223 40.0142C39.6466 40.0142 38.2642 39.4428 37.175 38.2999C36.0857 37.1285 35.5411 35.5714 35.5411 33.6285C35.5411 31.6856 36.0857 30.1427 37.175 28.9999C38.2642 27.8284 39.6466 27.2427 41.3223 27.2427C42.9981 27.2427 44.3666 27.8284 45.4278 28.9999C46.5171 30.1427 47.0617 31.6856 47.0617 33.6285C47.0617 35.5714 46.5171 37.1285 45.4278 38.2999Z" fill="black"/>
<path d="M68.9412 45.5C66.5393 45.5 64.3748 45 62.4478 44C60.5486 42.9714 59.0545 41.5571 57.9652 39.7571C56.904 37.9571 56.3733 35.9142 56.3733 33.6285C56.3733 31.3428 56.904 29.2999 57.9652 27.4999C59.0545 25.6999 60.5486 24.2999 62.4478 23.2998C64.3748 22.2713 66.5393 21.757 68.9412 21.757C71.3151 21.757 73.3818 22.2713 75.1413 23.2998C76.9287 24.2999 78.2274 25.7427 79.0373 27.6285L73.9683 30.4142C72.7953 28.2999 71.1056 27.2427 68.8993 27.2427C67.1956 27.2427 65.7852 27.8142 64.6681 28.957C63.551 30.0999 62.9924 31.657 62.9924 33.6285C62.9924 35.5999 63.551 37.1571 64.6681 38.2999C65.7852 39.4428 67.1956 40.0142 68.8993 40.0142C71.1335 40.0142 72.8232 38.9571 73.9683 36.8428L79.0373 39.6714C78.2274 41.5 76.9287 42.9286 75.1413 43.9571C73.3818 44.9857 71.3151 45.5 68.9412 45.5Z" fill="black"/>
<path d="M84.773 43.4428C86.1974 44.8143 88.1803 45.5 90.7218 45.5C91.8948 45.5 93.0259 45.3143 94.1151 44.9429L93.8219 39.7571C93.6264 39.8714 93.3471 39.9714 92.984 40.0571C92.6489 40.1428 92.3138 40.1857 91.9786 40.1857C91.0849 40.1857 90.3867 39.9285 89.884 39.4142C89.4092 38.8714 89.1718 38.1142 89.1718 37.1428V13.3569H82.6365V37.5285C82.6365 40.0714 83.3487 42.0428 84.773 43.4428Z" fill="black"/>
<path d="M120.029 22.0998V45.1571H113.829V42.4143C112.964 43.4143 111.93 44.1857 110.729 44.7286C109.528 45.2429 108.23 45.5 106.833 45.5C103.873 45.5 101.527 44.6286 99.7952 42.8857C98.0636 41.1428 97.1979 38.5571 97.1979 35.1285V22.0998H103.733V34.1428C103.733 37.8571 105.255 39.7142 108.299 39.7142C109.863 39.7142 111.12 39.2 112.07 38.1714C113.019 37.1142 113.494 35.5571 113.494 33.4999V22.0998H120.029Z" fill="black"/>
<path fill-rule="evenodd" clip-rule="evenodd" d="M145.103 23.257C143.4 22.257 141.5 21.757 139.406 21.757C136.529 21.757 134.267 22.6856 132.619 24.5427V13.3569H126.084V45.1571H132.326V42.5C133.946 44.5 136.306 45.5 139.406 45.5C141.5 45.5 143.4 45.0143 145.103 44.0428C146.835 43.0428 148.189 41.6571 149.167 39.8857C150.144 38.0857 150.633 35.9999 150.633 33.6285C150.633 31.257 150.144 29.1856 149.167 27.4142C148.189 25.6142 146.835 24.2284 145.103 23.257ZM142.38 38.2999C141.319 39.4428 139.95 40.0142 138.275 40.0142C136.599 40.0142 135.217 39.4428 134.127 38.2999C133.066 37.1285 132.535 35.5714 132.535 33.6285C132.535 31.6856 133.066 30.1427 134.127 28.9999C135.217 27.8284 136.599 27.2427 138.275 27.2427C139.95 27.2427 141.319 27.8284 142.38 28.9999C143.469 30.1427 144.014 31.6856 144.014 33.6285C144.014 35.5714 143.469 37.1285 142.38 38.2999Z" fill="black"/>
</svg>
