<svg width="48" height="48" viewBox="0 0 48 48" fill="none" xmlns="http://www.w3.org/2000/svg">
<rect width="48" height="48" rx="24" fill="#0A66C2"/>
<path fill-rule="evenodd" clip-rule="evenodd" d="M34.2617 12H13.8091C12.8309 12 12 12.7737 12 13.7269V34.272C12 35.2263 12.5451 36 13.5234 36H33.976C34.9554 36 36 35.2263 36 34.272V13.7269C36 12.7737 35.2411 12 34.2617 12Z" fill="white"/>
<path fill-rule="evenodd" clip-rule="evenodd" d="M34.2617 12H13.8091C12.8309 12 12 12.7737 12 13.7269V34.272C12 35.2263 12.5451 36 13.5234 36H33.976C34.9554 36 36 35.2263 36 34.272V13.7269C36 12.7737 35.2411 12 34.2617 12ZM21.1429 21.1429H24.3737V22.7897H24.4091C24.9017 21.9017 26.3566 21 28.1554 21C31.608 21 32.5714 22.8331 32.5714 26.2286V32.5714H29.1429V26.8537C29.1429 25.3337 28.536 24 27.1166 24C25.3931 24 24.5714 25.1669 24.5714 27.0823V32.5714H21.1429V21.1429ZM15.4286 32.5714H18.8571V21.1429H15.4286V32.5714ZM19.2857 17.1429C19.2858 17.4242 19.2305 17.7029 19.123 17.9628C19.0154 18.2228 18.8577 18.4591 18.6588 18.6581C18.4599 18.8571 18.2238 19.015 17.9639 19.1228C17.704 19.2305 17.4254 19.286 17.144 19.2861C16.8626 19.2862 16.584 19.2308 16.324 19.1232C16.0641 19.0156 15.8279 18.8578 15.6289 18.6589C15.4299 18.46 15.272 18.2238 15.1643 17.9639C15.0566 17.704 15.0012 17.4254 15.0011 17.144C15.0011 16.5759 15.2267 16.031 15.6283 15.6293C16.03 15.2275 16.5748 15.0017 17.1429 15.0015C17.711 15.0014 18.2559 15.2269 18.6577 15.6285C19.0596 16.03 19.2855 16.5748 19.2857 17.1429Z" fill="#0A66C2"/>
</svg>
