<svg width="170" height="56" viewBox="0 0 170 56" fill="none" xmlns="http://www.w3.org/2000/svg">
<g clip-path="url(#clip0_14_97)">
<path d="M57.9505 19.0065L43.94 5.26102C40.5451 1.93072 36.1106 0.139568 31.66 0.09375C27.2103 0.139568 22.7801 1.93072 19.3801 5.26102L5.37036 19.0065C3.73749 20.5954 2.43978 22.4945 1.55372 24.5919C0.667664 26.6892 0.211182 28.9425 0.211182 31.2187C0.211182 33.495 0.667664 35.7482 1.55372 37.8456C2.43978 39.943 3.73749 41.8421 5.37036 43.431L7.14006 45.167C10.2851 48.2563 26.6901 55.3131 28.1623 55.9071V29.2163C28.1623 28.4026 27.5945 27.6619 26.8159 27.3607L18.0804 23.9514C17.3654 24.5495 16.4711 24.8927 15.5388 24.9266C14.6065 24.9606 13.6895 24.6835 12.9327 24.139C12.1759 23.5946 11.6224 22.8139 11.3598 21.9203C11.0972 21.0268 11.1404 20.0713 11.4826 19.205C11.8248 18.3387 12.4465 17.611 13.2493 17.1368C14.0522 16.6626 14.9905 16.4691 15.9159 16.5868C16.8413 16.7044 17.701 17.1266 18.3592 17.7865C19.0173 18.4465 19.4364 19.3066 19.5501 20.2308L28.0501 23.5493C29.2014 23.9947 30.4228 24.2328 31.6575 24.2527C32.8929 24.2375 34.1153 23.9992 35.2657 23.5493L43.7751 20.2308C43.8742 19.4313 44.2026 18.6773 44.7206 18.0596C45.2386 17.4418 45.9244 16.9864 46.6954 16.7482C47.4664 16.51 48.2899 16.4991 49.0669 16.7167C49.844 16.9344 50.5416 17.3713 51.0759 17.9752C51.6103 18.579 51.9586 19.3239 52.079 20.1206C52.1995 20.9172 52.087 21.7316 51.755 22.4659C51.423 23.2003 50.8857 23.8233 50.2076 24.2602C49.5295 24.6971 48.7395 24.9293 47.9324 24.9289C46.9473 24.9321 45.9932 24.5857 45.2405 23.9514L36.4948 27.3607C35.7171 27.6619 35.1493 28.3933 35.1493 29.2163V55.9071C36.6232 55.3131 53.0239 48.2563 56.174 45.167L57.9412 43.4301C59.5745 41.8419 60.8728 39.9433 61.7596 37.8463C62.6464 35.7494 63.1037 33.4964 63.1046 31.2203C63.1054 28.9441 62.6499 26.6908 61.7647 24.5932C60.8795 22.4955 59.5826 20.596 57.9505 19.0065ZM31.66 18.3667C30.6583 18.3667 29.6792 18.0702 28.8463 17.5147C28.0135 16.9592 27.3644 16.1696 26.9811 15.2458C26.5978 14.322 26.4976 13.3055 26.6931 12.3249C26.8886 11.3442 27.371 10.4435 28.0793 9.73653C28.7876 9.02957 29.6901 8.54817 30.6725 8.35321C31.655 8.15824 32.6733 8.25848 33.5986 8.64123C34.524 9.02398 35.3149 9.67206 35.8712 10.5035C36.4276 11.335 36.7245 12.3124 36.7243 13.3123C36.723 14.6525 36.1889 15.9375 35.2395 16.8851C34.29 17.8327 33.0027 18.3656 31.66 18.3667Z" fill="#7DBA28"/>
<path d="M83.629 11.0625H80.7075V29.2523H83.629V11.0625Z" fill="#323232"/>
<path d="M91.2194 29.2523H94.1409V13.6309L99.5248 13.658V11.0625H85.8721V13.658L91.2194 13.6309V29.2523Z" fill="#323232"/>
<path d="M110.921 22.6616H114.107C115.006 22.6722 115.899 22.5174 116.742 22.2051C117.485 21.925 118.163 21.4992 118.738 20.9527C119.289 20.4261 119.723 19.7902 120.013 19.0861C120.318 18.3568 120.471 17.5728 120.462 16.7824C120.467 16.0038 120.323 15.2313 120.037 14.5068C119.764 13.8177 119.351 13.193 118.823 12.6724C118.269 12.1331 117.607 11.716 116.882 11.448C116.112 11.1459 115.243 11 114.272 11H108V29.1881H110.921V22.6616ZM110.911 13.6057H114.263C115.335 13.6057 116.14 13.8891 116.699 14.4652C117.257 15.0413 117.541 15.8177 117.541 16.7867C117.541 17.8108 117.239 18.6152 116.626 19.1998C116.012 19.7844 115.181 20.0771 114.098 20.0771H110.911V13.6057Z" fill="#323232"/>
<path d="M130.019 11.0625H127.044L120.394 29.2523H123.425L124.991 24.7757H132.046L133.639 29.2549H136.67L130.019 11.0625ZM125.898 22.2625L127.253 18.4044L128.498 14.0848H128.553L129.795 18.4019L131.141 22.26L125.898 22.2625Z" fill="#323232"/>
<path d="M150.875 19.9105C151.598 18.9772 151.955 17.8903 151.955 16.6286C151.961 15.8823 151.817 15.1424 151.53 14.453C151.251 13.7875 150.837 13.1869 150.313 12.689C149.744 12.1605 149.07 11.756 148.335 11.5012C147.479 11.2047 146.577 11.0591 145.671 11.071H138.995V29.2617H141.916V22.3041H145.095L149.152 29.2617H152.284L147.985 21.8663C149.193 21.4827 150.155 20.8337 150.875 19.9105ZM141.919 19.7001V13.6606H145.69C146.808 13.6606 147.645 13.9346 148.199 14.4743C148.753 15.0139 149.042 15.736 149.042 16.6311C149.042 17.5644 148.749 18.3137 148.136 18.8711C147.522 19.4286 146.691 19.7026 145.608 19.7026L141.919 19.7001Z" fill="#323232"/>
<path d="M158.012 11.0625H155.09V29.2523H158.012V11.0625Z" fill="#323232"/>
<path d="M169.613 29.2526L161.72 19.5909L169.375 11.0713H166.024L159.046 18.8137V20.4869L166.152 29.2526H169.613Z" fill="#323232"/>
<path d="M82.5842 40.1389C81.4673 40.0541 81.1562 39.7367 81.1562 39.1699C81.1562 38.3011 81.7878 38.0669 82.795 38.0669C83.2625 38.0669 83.9213 38.1585 84.178 38.2773L84.3429 37.7564C83.8369 37.616 83.315 37.541 82.7899 37.5332C81.4078 37.5332 80.5281 37.9719 80.5281 39.1784C80.5281 40.2119 81.1418 40.5776 82.4975 40.6777C83.6144 40.7625 83.9255 41.208 83.9255 41.7654C83.9255 42.6343 83.2387 42.8685 82.2408 42.8685C81.8014 42.8685 81.1605 42.7836 80.812 42.6581L80.6471 43.179C81.1688 43.3266 81.708 43.4034 82.2502 43.4073C83.6238 43.4073 84.5392 42.9593 84.5392 41.7621C84.535 40.7328 83.94 40.2484 82.5842 40.1389Z" fill="#323232"/>
<path d="M89.6173 37.6807H85.1123V38.1651H87.0716V43.3112H87.6666V38.1651H89.6173V37.6807Z" fill="#323232"/>
<path d="M91.3298 37.6807C90.5512 39.5635 89.8551 41.4284 89.2048 43.3112H89.782C89.9741 42.7173 90.1662 42.1505 90.3676 41.5744H93.1148C93.3443 42.187 93.5823 42.7716 93.7948 43.3112H94.4536C93.7668 41.7483 92.9703 39.5779 92.3286 37.6807H91.3298ZM90.5512 41.0899C90.8989 40.1209 91.2933 39.1426 91.6962 38.1371H91.9427C92.2546 39.1155 92.6023 40.1396 92.9499 41.0899H90.5512Z" fill="#323232"/>
<path d="M97.8222 40.7971C99.0674 40.7971 99.4516 40.1022 99.4516 39.3072C99.4516 38.4485 99.104 37.6807 97.8494 37.6807H95.3308V43.3112H95.9173V40.8701H97.007C97.432 40.8701 98.1698 41.739 99.0674 43.3112H99.8001C98.9399 41.8849 98.2251 40.9346 97.8222 40.7971ZM95.908 40.3585V38.1651L97.8494 38.1558C98.4631 38.1558 98.8014 38.5673 98.8014 39.2979C98.8014 39.947 98.4614 40.3585 97.8035 40.3585H95.908Z" fill="#323232"/>
<path d="M100.02 38.1651H101.98V43.3112H102.575L102.565 38.1651H104.516V37.6807H100.02V38.1651Z" fill="#323232"/>
<path d="M108.023 42.2594V37.4697H107.501V42.2866C107.501 42.8805 107.671 43.1554 108.011 43.4745L108.414 43.1351C108.121 42.8423 108.03 42.6506 108.03 42.2577L108.023 42.2594Z" fill="#323232"/>
<path d="M111.045 39.124C109.79 39.124 109.195 39.5898 109.195 41.2537C109.195 42.9176 109.781 43.4292 111.045 43.4292C112.309 43.4292 112.904 42.9261 112.904 41.2537C112.904 39.5814 112.317 39.124 111.045 39.124ZM111.054 42.9422C110.093 42.9422 109.779 42.5952 109.779 41.269C109.779 39.8707 110.091 39.5966 111.054 39.606C112.017 39.6153 112.336 39.88 112.336 41.269C112.336 42.5977 112.016 42.9448 111.054 42.9448V42.9422Z" fill="#323232"/>
<path d="M115.898 39.6244C116.241 39.6174 116.581 39.683 116.896 39.817L117.066 39.3232C116.69 39.1987 116.298 39.1309 115.903 39.1221C114.639 39.1221 113.925 39.5879 113.925 41.2518C113.925 42.9156 114.63 43.4273 115.903 43.4273C116.301 43.421 116.695 43.3437 117.066 43.199L116.896 42.7146C116.581 42.8502 116.242 42.9214 115.898 42.9241C114.945 42.9241 114.506 42.5958 114.506 41.2696C114.506 39.8832 114.945 39.6244 115.898 39.6244Z" fill="#323232"/>
<path d="M119.255 39.1055C118.796 39.1096 118.34 39.1772 117.9 39.3066L118.056 39.8004C118.376 39.6629 118.844 39.6086 119.228 39.6086C120.18 39.6086 120.437 39.819 120.437 40.8245C120.055 40.7362 119.665 40.6932 119.274 40.6964C118.358 40.6964 117.653 40.8881 117.653 42.0489C117.653 43.1001 118.138 43.42 119.31 43.42C119.82 43.42 120.519 43.3012 120.958 43.1001V40.687C120.962 39.4542 120.449 39.1055 119.255 39.1055ZM120.437 42.754C120.083 42.873 119.713 42.9335 119.34 42.933C118.49 42.933 118.25 42.8142 118.25 41.9996C118.25 41.2504 118.526 41.1588 119.34 41.1588C119.709 41.1539 120.078 41.1906 120.439 41.2683L120.437 42.754Z" fill="#323232"/>
<path d="M122.72 37.4697H122.189V42.2866C122.189 42.8805 122.359 43.1554 122.699 43.4745L123.102 43.1351C122.809 42.8423 122.718 42.6506 122.718 42.2577L122.72 37.4697Z" fill="#323232"/>
<path d="M131.475 40.0655H130.934C130.932 40.6191 130.766 41.1599 130.458 41.6199C129.744 40.6018 129.341 40.3404 128.937 40.2946C129.957 40.203 130.137 39.581 130.137 38.9141C130.137 38.0088 129.606 37.543 128.361 37.543C127.116 37.543 126.584 38.0521 126.584 38.9599C126.584 39.6268 126.63 40.2216 127.647 40.3124C126.575 40.3582 126.191 41.0438 126.191 41.8117C126.191 43.0641 126.886 43.4238 128.196 43.4238C129.259 43.4238 129.707 43.1404 130.406 42.4735C130.576 42.7281 130.763 43.0123 130.928 43.3144H131.588C131.294 42.8299 131.038 42.409 130.782 42.0416C131.227 41.4647 131.495 40.7604 131.475 40.0655ZM127.198 38.9871C127.198 38.3083 127.5 38.0368 128.37 38.0368C129.241 38.0368 129.56 38.3202 129.56 38.9964C129.56 39.7456 129.112 40.057 128.306 40.057C127.5 40.057 127.198 39.7371 127.198 38.9871ZM128.205 42.9334C127.134 42.9334 126.822 42.6042 126.822 41.7455C126.822 40.8495 127.298 40.5296 128.288 40.5296C128.956 40.5296 129.487 41.0964 130.137 42.0467C129.524 42.717 129.157 42.9334 128.205 42.9334Z" fill="#323232"/>
<path d="M136.904 40.7604H138.38V42.79C138.008 42.8788 137.627 42.9246 137.245 42.9266C135.816 42.9266 135.285 42.5159 135.285 40.4592C135.285 38.4025 135.816 38.0732 137.245 38.0732C137.685 38.0732 138.289 38.1581 138.627 38.2837L138.811 37.7746C138.297 37.6345 137.768 37.5609 137.236 37.5557C135.487 37.5557 134.654 38.1496 134.654 40.4532C134.654 42.7569 135.487 43.4331 137.236 43.4331C137.739 43.4331 138.518 43.3873 138.957 43.2498V40.2946H136.906L136.904 40.7604Z" fill="#323232"/>
<path d="M142.692 37.543C140.943 37.543 140.137 38.1734 140.137 40.4677C140.137 42.7993 140.933 43.4298 142.692 43.4204C144.451 43.4111 145.256 42.7993 145.256 40.4677C145.256 38.1734 144.45 37.543 142.692 37.543ZM142.683 42.9181C141.254 42.9181 140.759 42.4515 140.759 40.4864C140.759 38.4203 141.254 38.0368 142.683 38.0368C144.128 38.0368 144.633 38.4203 144.633 40.4864C144.633 42.4515 144.129 42.9181 142.683 42.9181Z" fill="#323232"/>
<path d="M152.087 39.4351C151.648 39.234 150.933 39.1152 150.439 39.1152C149.175 39.1152 148.588 39.5811 148.588 41.2449C148.588 42.9088 149.166 43.4204 150.439 43.4204C151.024 43.4204 151.364 43.2465 151.565 43.0811C151.565 44.1697 151.024 44.4437 150.072 44.4437C149.779 44.4437 149.193 44.3428 148.909 44.2061L148.753 44.7084C149.056 44.8366 149.724 44.946 150.072 44.946C151.347 44.946 152.095 44.5167 152.095 43.0081H152.087V39.4351ZM151.577 42.342C151.577 42.7255 151.055 42.9266 150.451 42.9266C149.489 42.9266 149.176 42.5983 149.176 41.2721C149.176 39.8738 149.487 39.6184 150.451 39.6184C150.833 39.6141 151.213 39.6714 151.577 39.7881V42.342Z" fill="#323232"/>
<path d="M153.854 37.4697H153.323V42.2866C153.323 42.8805 153.493 43.1554 153.833 43.4745L154.236 43.1351C153.943 42.8423 153.852 42.6506 153.852 42.2577L153.854 37.4697Z" fill="#323232"/>
<path d="M156.867 39.124C155.604 39.124 155.017 39.5898 155.017 41.2537C155.017 42.9176 155.604 43.4292 156.867 43.4292C158.13 43.4292 158.726 42.9261 158.726 41.2537C158.726 39.5814 158.14 39.124 156.867 39.124ZM156.876 42.9422C155.915 42.9422 155.601 42.5952 155.601 41.269C155.601 39.8707 155.912 39.5966 156.876 39.606C157.84 39.6153 158.158 39.88 158.158 41.269C158.158 42.5977 157.837 42.9448 156.876 42.9448V42.9422Z" fill="#323232"/>
<path d="M161.519 39.1247C160.932 39.1247 160.594 39.2893 160.392 39.4539V37.4795H159.861V43.1032C160.301 43.3043 161.015 43.4231 161.509 43.4231C162.773 43.4231 163.359 42.9573 163.359 41.2841C163.359 39.6109 162.783 39.1154 161.519 39.1247ZM161.509 42.9268C161.127 42.931 160.747 42.8737 160.383 42.7571V40.1938C160.383 39.8196 160.905 39.6185 161.509 39.6185C162.471 39.6185 162.784 39.9469 162.784 41.2722C162.783 42.6527 162.462 42.9268 161.509 42.9268Z" fill="#323232"/>
<path d="M165.941 39.1055C165.483 39.1096 165.027 39.1772 164.586 39.3066L164.742 39.8004C165.062 39.6629 165.53 39.6086 165.914 39.6086C166.866 39.6086 167.123 39.819 167.123 40.8245C166.742 40.7362 166.351 40.6932 165.96 40.6964C165.045 40.6964 164.339 40.8881 164.339 42.0489C164.339 43.1001 164.824 43.42 165.997 43.42C166.507 43.42 167.205 43.3012 167.645 43.1001V40.687C167.645 39.4542 167.132 39.1055 165.941 39.1055ZM167.123 42.754C166.769 42.8744 166.398 42.9361 166.024 42.9364C165.174 42.9364 164.934 42.8176 164.934 42.003C164.934 41.2538 165.209 41.1622 166.024 41.1622C166.393 41.1573 166.762 41.194 167.123 41.2717V42.754Z" fill="#323232"/>
<path d="M169.405 42.2594V37.4697H168.874V42.2866C168.874 42.8805 169.044 43.1554 169.384 43.4745L169.787 43.1351C169.494 42.8483 169.405 42.6523 169.405 42.2594Z" fill="#323232"/>
</g>
<defs>
<clipPath id="clip0_14_97">
<rect width="170" height="56" fill="white"/>
</clipPath>
</defs>
</svg>
