<svg width="48" height="48" viewBox="0 0 48 48" fill="none" xmlns="http://www.w3.org/2000/svg">
<g clip-path="url(#clip0_14_142)">
<g clip-path="url(#clip1_14_142)">
<path d="M24.5139 -22C6.77052 -22 1.58126 -21.9802 0.572567 -21.8896C-3.06867 -21.5619 -5.33448 -20.9412 -7.80293 -19.6106C-9.70527 -18.5879 -11.2056 -17.4024 -12.6862 -15.7406C-15.3829 -12.71 -17.0172 -8.98161 -17.6088 -4.54966C-17.8964 -2.39809 -17.9801 -1.95929 -17.9971 9.03069C-18.0036 12.694 -17.9971 17.5152 -17.9971 23.982C-17.9971 43.1762 -17.9775 48.7887 -17.8925 49.8786C-17.5983 53.7146 -17.0427 56.1281 -15.866 58.768C-13.6171 63.8213 -9.32219 67.6149 -4.26237 69.0304C-2.51039 69.5187 -0.575371 69.7877 1.90878 69.9151C2.96127 69.9646 13.6889 70 24.423 70C35.1571 70 45.8913 69.9859 46.9176 69.9292C49.794 69.7827 51.4643 69.54 53.311 69.0233C58.4035 67.6007 62.6201 63.8638 64.9146 58.7397C66.0684 56.1635 66.6535 53.658 66.9183 50.0223C66.9758 49.2296 67 36.5913 67 23.9699C67 11.3465 66.9739 -1.26852 66.9163 -2.0612C66.6483 -5.75567 66.0632 -8.23988 64.8721 -10.8656C63.8948 -13.0151 62.8096 -14.6203 61.2342 -16.2615C58.4225 -19.169 54.9839 -20.9384 50.8864 -21.5782C48.901 -21.8889 48.5055 -21.9809 38.3467 -22H24.5139Z" fill="url(#paint0_radial_14_142)"/>
<path d="M24.0096 -5.02539C11.8919 -5.02539 8.34795 -5.01289 7.65907 -4.95572C5.17232 -4.74896 3.62491 -4.35731 1.93909 -3.51775C0.639911 -2.87245 -0.384702 -2.12443 -1.39592 -1.07587C-3.23755 0.836369 -4.35368 3.18893 -4.75772 5.98539C-4.95416 7.34299 -5.01131 7.61986 -5.02292 14.5543C-5.02738 16.8658 -5.02292 19.9079 -5.02292 23.9882C-5.02292 36.0994 -5.00952 39.6407 -4.95149 40.3284C-4.75058 42.7489 -4.37109 44.2717 -3.56748 45.9374C-2.03167 49.126 0.901533 51.5196 4.35709 52.4128C5.55359 52.7209 6.87509 52.8906 8.57162 52.971C9.29041 53.0023 16.6167 53.0246 23.9475 53.0246C31.2783 53.0246 38.6091 53.0157 39.31 52.98C41.2744 52.8875 42.4151 52.7343 43.6763 52.4083C47.1542 51.5107 50.0338 49.1528 51.6009 45.9196C52.3889 44.294 52.7885 42.7132 52.9693 40.4191C53.0086 39.9189 53.0251 31.9444 53.0251 23.9806C53.0251 16.0155 53.0072 8.05572 52.968 7.55556C52.7849 5.22443 52.3853 3.65695 51.5719 2.00015C50.9044 0.643895 50.1633 -0.36894 49.0874 -1.40455C47.1672 -3.23909 44.8188 -4.35553 42.0204 -4.75923C40.6646 -4.95528 40.3945 -5.01333 33.4565 -5.02539H24.0096Z" fill="url(#paint1_radial_14_142)"/>
<path d="M24.0011 12C20.7421 12 20.3331 12.0143 19.0531 12.0725C17.7756 12.131 16.9036 12.3333 16.1405 12.63C15.3513 12.9365 14.6818 13.3465 14.0148 14.0138C13.3473 14.6808 12.9373 15.3502 12.6298 16.1392C12.3323 16.9025 12.1298 17.7748 12.0723 19.0518C12.015 20.3317 12 20.741 12 24C12 27.259 12.0145 27.6668 12.0725 28.9468C12.1313 30.2243 12.3335 31.0962 12.63 31.8592C12.9368 32.6485 13.3468 33.318 14.014 33.985C14.6808 34.6525 15.3503 35.0635 16.139 35.37C16.9026 35.6667 17.7748 35.869 19.0521 35.9275C20.3321 35.9858 20.7408 36 23.9996 36C27.2589 36 27.6667 35.9858 28.9467 35.9275C30.2242 35.869 31.0972 35.6667 31.8607 35.37C32.6497 35.0635 33.3182 34.6525 33.985 33.985C34.6525 33.318 35.0625 32.6485 35.37 31.8595C35.665 31.0963 35.8675 30.224 35.9275 28.947C35.985 27.667 36 27.259 36 24C36 20.741 35.985 20.332 35.9275 19.052C35.8675 17.7745 35.665 16.9025 35.37 16.1395C35.0625 15.3502 34.6525 14.6808 33.985 14.0138C33.3175 13.3463 32.65 12.9363 31.86 12.63C31.095 12.3333 30.2224 12.131 28.9449 12.0725C27.6649 12.0143 27.2574 12 23.9974 12H24.0011ZM22.9246 14.1625C23.2441 14.162 23.6006 14.1625 24.0011 14.1625C27.2052 14.1625 27.5849 14.174 28.8502 14.2315C30.0202 14.285 30.6552 14.4805 31.0782 14.6448C31.6382 14.8623 32.0375 15.1222 32.4572 15.5422C32.8772 15.9622 33.1372 16.3622 33.3552 16.9222C33.5195 17.3447 33.7152 17.9797 33.7685 19.1497C33.826 20.4148 33.8385 20.7947 33.8385 23.9972C33.8385 27.1997 33.826 27.5797 33.7685 28.8447C33.715 30.0147 33.5195 30.6497 33.3552 31.0723C33.1377 31.6322 32.8772 32.031 32.4572 32.4508C32.0372 32.8708 31.6385 33.1307 31.0782 33.3482C30.6557 33.5133 30.0202 33.7083 28.8502 33.7617C27.5852 33.8193 27.2052 33.8318 24.0011 33.8318C20.7968 33.8318 20.4171 33.8193 19.1521 33.7617C17.9821 33.7077 17.3471 33.5122 16.9238 33.348C16.3638 33.1305 15.9638 32.8705 15.5438 32.4505C15.1238 32.0305 14.8638 31.6315 14.6458 31.0713C14.4815 30.6488 14.2858 30.0138 14.2325 28.8438C14.175 27.5787 14.1635 27.1987 14.1635 23.9942C14.1635 20.7897 14.175 20.4118 14.2325 19.1468C14.286 17.9768 14.4815 17.3417 14.6458 16.9187C14.8633 16.3587 15.1238 15.9587 15.5438 15.5387C15.9638 15.1187 16.3638 14.8587 16.9238 14.6407C17.3468 14.4757 17.9821 14.2808 19.1521 14.227C20.2591 14.177 20.6881 14.162 22.9246 14.1595V14.1625ZM30.4067 16.155C29.6117 16.155 28.9667 16.7992 28.9667 17.5945C28.9667 18.3895 29.6117 19.0345 30.4067 19.0345C31.2017 19.0345 31.8467 18.3895 31.8467 17.5945C31.8467 16.7995 31.2017 16.1545 30.4067 16.1545V16.155ZM24.0011 17.8375C20.5978 17.8375 17.8386 20.5968 17.8386 24C17.8386 27.4032 20.5978 30.1612 24.0011 30.1612C27.4044 30.1612 30.1627 27.4032 30.1627 24C30.1627 20.5968 27.4044 17.8375 24.0011 17.8375ZM24.0011 20C26.2101 20 28.0012 21.7908 28.0012 24C28.0012 26.209 26.2101 28 24.0011 28C21.7919 28 20.0011 26.209 20.0011 24C20.0011 21.7908 21.7919 20 24.0011 20Z" fill="white"/>
</g>
</g>
<defs>
<radialGradient id="paint0_radial_14_142" cx="0" cy="0" r="1" gradientUnits="userSpaceOnUse" gradientTransform="translate(4.57823 77.0859) rotate(-90) scale(91.1788 78.351)">
<stop stop-color="#FFDD55"/>
<stop offset="0.1" stop-color="#FFDD55"/>
<stop offset="0.5" stop-color="#FF543E"/>
<stop offset="1" stop-color="#C837AB"/>
</radialGradient>
<radialGradient id="paint1_radial_14_142" cx="0" cy="0" r="1" gradientUnits="userSpaceOnUse" gradientTransform="translate(-14.7486 -0.843566) rotate(78.6806) scale(25.717 106.006)">
<stop stop-color="#3771C8"/>
<stop offset="0.128" stop-color="#3771C8"/>
<stop offset="1" stop-color="#6600FF" stop-opacity="0"/>
</radialGradient>
<clipPath id="clip0_14_142">
<rect width="48" height="48" rx="24" fill="white"/>
</clipPath>
<clipPath id="clip1_14_142">
<rect width="54" height="54" fill="white" transform="translate(-3 -3)"/>
</clipPath>
</defs>
</svg>
